<svg width="580" height="400" xmlns="http://www.w3.org/2000/svg"> <!-- Created with Method Draw - http://github.com/duopixel/Method-Draw/ --> <g> <title>background</title> <rect fill="#fff" id="canvas_background" height="402" width="582" y="-1" x="-1"/> <g display="none" overflow="visible" y="0" x="0" height="100%" width="100%" id="canvasGrid"> <rect fill="url(#gridpattern)" stroke-width="0" y="0" x="0" height="100%" width="100%"/> </g> </g> <g> <title>Layer 1</title> <path stroke="#000" id="svg_1" d="m0.75,56.75c0,-15.46961 4.6989,-29.46961 12.29834,-39.60221c7.59945,-10.1326 18.09945,-16.39779 29.70166,-16.39779c11.60221,0 22.10221,6.26519 29.70166,16.39779c7.59945,10.1326 12.29834,24.1326 12.29834,39.60221c0,15.46962 -4.69889,29.46962 -12.29834,39.60221c-7.59945,10.1326 -18.09945,16.39779 -29.70166,16.39779c-11.60221,0 -22.10221,-6.26519 -29.70166,-16.39779c-7.59944,-10.1326 -12.29834,-24.1326 -12.29834,-39.60221z" stroke-linecap="undefined" stroke-linejoin="undefined" stroke-width="1.5" fill="#fff"/> </g> </svg>